<?xml version="1.0" encoding="UTF-8"?>
<svg enable-background="new 0 0 1000 1000" version="1.1" viewBox="0 0 1e3 1e3" xml:space="preserve" xmlns="http://www.w3.org/2000/svg">
<metadata> Svg Vector Icons : http://www.onlinewebfonts.com/icon </metadata>
<g fill="#fff"><g transform="translate(0 512) scale(.1 -.1)" fill="#fff"><path d="m4884 4912.6c-128.4-130.4-404.5-356.6-584.7-477.3-331.7-222.4-910.6-454.3-1382.2-554-602-126.5-1343.9-157.2-1846.1-76.7l-78.6 13.4v-2179.7c0-1397.5 7.7-2246.8 21.1-2365.7 95.8-889.5 657.5-1771.4 1662.1-2607.2 567.5-471.6 1341.9-968.1 2051.2-1313.2l272.2-132.2 274.1 132.3c354.6 174.4 797.5 425.6 1144.5 651.8 1466.6 960.4 2300.5 1957.3 2536.3 3034.7 38.3 178.3 40.3 233.9 46 2480.7l7.7 2298.6-76.7-13.4c-500.3-78.6-1184.7-53.7-1788.6 65.2-816.7 163-1522.1 525.3-2028.2 1042.9-57.5 59.4-109.3 107.4-115 107.4s-57.6-48.1-115.1-107.6zm669.1-3347.1c-42.2-139.9-224.3-759.1-406.4-1376.4l-329.8-1121.6-187.9-5.8c-132.3-3.8-186 1.9-186 17.2 0 23 784.1 2701.2 799.4 2726.1 3.8 7.7 92 13.4 195.5 13.4h189.8l-74.6-252.9zm-1401.4-536.8-5.7-197.5-671-293.3c-368.1-161-676.7-299.1-684.4-306.7-5.7-7.7 295.2-147.6 671-312.5l684.4-299.1 5.7-193.6c3.8-126.5-1.9-195.5-15.3-195.5-9.6 0-419.8 186-910.6 414.1l-891.4 416v331.7l887.6 414.1c486.9 228.1 897.2 416 910.6 416 19.1 1.8 22.9-44.2 19.1-193.7zm2612.9-212.8 889.5-408.3 5.8-180.2 3.8-182.1-881.8-402.6c-483.1-220.5-893.3-404.5-910.6-408.3-26.8-5.7-28.8 19.2-24.9 189.8l5.7 195.5 695.9 297.1c381.5 164.9 694 302.9 694 308.6 0 7.7-312.5 145.7-694 308.6l-695.9 299.1-5.7 195.5c-1.9 111.2 1.9 195.5 13.4 195.5 9.6 0.1 416-183.9 904.8-408.2z" fill="#fff"/></g></g>
</svg>
